<svg width="24" height="24" viewBox="0 0 24 24" fill="none" xmlns="http://www.w3.org/2000/svg">
<circle cx="12" cy="12" r="12" fill="black"/>
<path d="M10.2685 15.0868V15.5868V23.5H13.1946V15.6251V15.1251H13.6946H15.7759L16.0721 12.5539H13.6947H13.1947V12.0539V10.1794C13.1947 9.80998 13.2958 9.44442 13.5791 9.17764C13.8569 8.91604 14.2276 8.82774 14.5992 8.82774H14.5997H14.6002H14.6008H14.6014H14.6021H14.6028H14.6035H14.6043H14.6051H14.6059H14.6068H14.6077H14.6086H14.6096H14.6106H14.6116H14.6126H14.6137H14.6149H14.616H14.6172H14.6184H14.6197H14.621H14.6223H14.6237H14.6251H14.6265H14.6279H14.6294H14.6309H14.6324H14.634H14.6356H14.6372H14.6389H14.6406H14.6423H14.6441H14.6458H14.6477H14.6495H14.6514H14.6533H14.6552H14.6571H14.6591H14.6611H14.6632H14.6653H14.6674H14.6695H14.6716H14.6738H14.676H14.6783H14.6805H14.6828H14.6851H14.6875H14.6898H14.6922H14.6947H14.6971H14.6996H14.7021H14.7046H14.7072H14.7098H14.7124H14.715H14.7177H14.7203H14.723H14.7258H14.7285H14.7313H14.7341H14.7369H14.7398H14.7427H14.7456H14.7485H14.7514H14.7544H14.7574H14.7604H14.7634H14.7665H14.7696H14.7727H14.7758H14.779H14.7822H14.7853H14.7886H14.7918H14.7951H14.7983H14.8016H14.805H14.8083H14.8117H14.8151H14.8185H14.8219H14.8253H14.8288H14.8323H14.8358H14.8393H14.8429H14.8464H14.85H14.8536H14.8573H14.8609H14.8646H14.8682H14.8719H14.8757H14.8794H14.8831H14.8869H14.8907H14.8945H14.8983H14.9022H14.906H14.9099H14.9138H14.9177H14.9216H14.9255H14.9295H14.9335H14.9375H14.9415H14.9455H14.9495H14.9536H14.9576H14.9617H14.9658H14.9699H14.974H14.9782H14.9823H14.9865H14.9907H14.9949H14.9991H15.0033H15.0076H15.0118H15.0161H15.0204H15.0246H15.0289H15.0333H15.0376H15.0419H15.0463H15.0507H15.055H15.0594H15.0638H15.0682H15.0727H15.0771H15.0815H15.086H15.0905H15.0949H15.0994H15.1039H15.1084H15.113H15.1175H15.122H15.1266H15.1311H15.1357H15.1403H15.1449H15.1495H15.1541H15.1587H15.1633H15.168H15.1726H15.1772H15.1819H15.1866H15.1912H15.1959H15.2006H15.2053H15.21H15.2147H15.2194H15.2242H15.2289H15.2336H15.2384H15.2431H15.2479H15.2526H15.2574H15.2622H15.2669H15.2717H15.2765H15.2813H15.2861H15.2909H15.2957H15.3005H15.3053H15.3102H15.315H15.3198H15.3247H15.3295H15.3343H15.3392H15.344H15.3489H15.3537H15.3586H15.3634H15.3683H15.3732H15.378H15.3829H15.3878H15.3926H15.3975H15.4024H15.4073H15.4121H15.417H15.4219H15.4268H15.4317H15.4365H15.4414H15.4463H15.4512H15.4561H15.461H15.4658H15.4707H15.4756H15.4805H15.4854H15.4902H15.4951H15.5H15.5049H15.5097H15.5146H15.5195H15.5244H15.5292H15.5341H15.5389H15.5438H15.5487H15.5535H15.5584H15.5632H15.5681H15.5729H15.5777H15.5826H15.5874H15.5922H15.597H15.6019H15.6067H15.6115H15.6163H15.6211H15.6259H15.6307H15.6355H15.6402H15.645H15.6498H15.6545H15.6593H15.664H15.6688H15.6735H15.6782H15.683H15.6877H15.6924H15.6971H15.7018H15.7065H15.7112H15.7158H15.7205H15.7252H15.7298H15.7345H15.7391H15.7437H15.7483H15.7529H15.7575H15.7621H15.7667H15.7713H15.7758H15.7804H15.7849H15.7895H15.794H15.7985H15.803H15.8075H15.812H15.8164H15.8209H15.8254H15.8298H15.8342H15.8386H15.843H15.8474H15.8518H15.8562H15.8605H15.8649H15.8692H15.8735H15.8778H15.8821H15.8864H15.8907H15.8949H15.8992H15.9034H15.9076H15.9118H15.916H15.9201H15.9243H15.9284H15.9326H15.9367H15.9408H15.9449H15.9489H15.953H15.957H15.961H15.965H15.969H15.973H15.977H15.9809H15.9848H15.9887H15.9926H15.9965H16.0004H16.0042H16.008H16.0118H16.0156H16.0194H16.0232H16.0269H16.0306H16.0343H16.038H16.0417H16.0453H16.0489H16.0525H16.0561H16.0597H16.0632H16.0668H16.0703H16.0738H16.0772H16.0807H16.0841H16.0875H16.0909H16.0943H16.0976H16.0977V6.50215H13.9532H13.941L13.9287 6.50155C13.9205 6.50115 13.8918 6.5 13.8454 6.5C13.4767 6.5 12.2153 6.57718 11.234 7.47994L10.2685 15.0868ZM10.2685 15.0868H9.76854M10.2685 15.0868H9.76854M9.76854 15.0868H8.00513V12.5539H9.86678H10.3668V12.0539V9.86181V9.81866M9.76854 15.0868L10.3668 9.81866M10.3668 9.81866L10.3594 9.77614M10.3668 9.81866L10.3594 9.77614M10.3594 9.77614C10.3296 9.60463 10.1771 8.45243 11.234 7.47997L10.3594 9.77614ZM16.3074 9.03741L16.3074 8.82774C16.3074 8.82774 16.3074 8.82774 16.3074 8.82774V9.03741V9.32774L16.3074 9.03741Z" fill="white" stroke="white"/>
</svg>
