<svg width="24" height="24" viewBox="0 0 24 24" fill="none" xmlns="http://www.w3.org/2000/svg">
<g clip-path="url(#clip0_211_1107)">
<circle cx="12" cy="12" r="12" fill="black"/>
<path d="M12 9.60001C11.3635 9.60001 10.753 9.85286 10.3029 10.303C9.85283 10.753 9.59998 11.3635 9.59998 12C9.59998 12.6365 9.85283 13.247 10.3029 13.6971C10.753 14.1471 11.3635 14.4 12 14.4C12.6365 14.4 13.2469 14.1471 13.697 13.6971C14.1471 13.247 14.4 12.6365 14.4 12C14.4 11.3635 14.1471 10.753 13.697 10.303C13.2469 9.85286 12.6365 9.60001 12 9.60001Z" fill="white"/>
<path fill-rule="evenodd" clip-rule="evenodd" d="M8.58624 6.18831C10.8551 5.93723 13.1449 5.93723 15.4138 6.18831C16.6533 6.32646 17.6526 7.30066 17.7982 8.54269C18.0673 10.8395 18.0673 13.1598 17.7982 15.4566C17.6526 16.6986 16.6533 17.6728 15.4144 17.8116C13.1453 18.0628 10.8554 18.0628 8.58624 17.8116C7.34671 17.6728 6.34738 16.6986 6.20183 15.4573C5.93272 13.1602 5.93272 10.8397 6.20183 8.54269C6.34738 7.30066 7.34671 6.32646 8.58624 6.18831ZM15.2637 8.0898C15.0905 8.0898 14.9245 8.15845 14.8021 8.28066C14.6797 8.40287 14.6109 8.56861 14.6109 8.74144C14.6109 8.91427 14.6797 9.08001 14.8021 9.20222C14.9245 9.32443 15.0905 9.39308 15.2637 9.39308C15.4368 9.39308 15.6028 9.32443 15.7252 9.20222C15.8476 9.08001 15.9164 8.91427 15.9164 8.74144C15.9164 8.56861 15.8476 8.40287 15.7252 8.28066C15.6028 8.15845 15.4368 8.0898 15.2637 8.0898ZM8.89955 11.9996C8.89955 11.1787 9.22621 10.3914 9.80766 9.81094C10.3891 9.23046 11.1777 8.90435 12 8.90435C12.8223 8.90435 13.6109 9.23046 14.1924 9.81094C14.7738 10.3914 15.1005 11.1787 15.1005 11.9996C15.1005 12.8206 14.7738 13.6079 14.1924 14.1884C13.6109 14.7688 12.8223 15.0949 12 15.0949C11.1777 15.0949 10.3891 14.7688 9.80766 14.1884C9.22621 13.6079 8.89955 12.8206 8.89955 11.9996Z" fill="white"/>
</g>
<defs>
<clipPath id="clip0_211_1107">
<rect width="24" height="24" fill="white"/>
</clipPath>
</defs>
</svg>
