<svg width="24" height="24" viewBox="0 0 24 24" fill="none" xmlns="http://www.w3.org/2000/svg">
<circle cx="12" cy="12" r="12" fill="black"/>
<path d="M17.3095 9.0455C16.622 8.90666 15.9995 8.56414 15.5327 8.06787C15.0658 7.5716 14.7791 6.94752 14.7143 6.28661V6H12.3427V14.8856C12.3412 15.279 12.2093 15.6621 11.9653 15.981C11.7213 16.2999 11.3777 16.5386 10.9826 16.6636C10.5875 16.7886 10.1609 16.7936 9.76265 16.6779C9.36441 16.5622 9.01459 16.3315 8.76234 16.0184C8.50617 15.7001 8.36407 15.313 8.35664 14.9133C8.34921 14.5135 8.47683 14.122 8.72101 13.7953C8.96519 13.4687 9.31322 13.224 9.71464 13.0967C10.1161 12.9694 10.55 12.9661 10.9535 13.0873V10.8126C10.0537 10.6952 9.13746 10.8462 8.33302 11.2446C7.52857 11.643 6.87614 12.2688 6.46698 13.0345C6.05783 13.8002 5.9124 14.6675 6.05106 15.515C6.18971 16.3626 6.6055 17.148 7.24028 17.7615C7.84563 18.3463 8.62182 18.7475 9.46978 18.9139C10.3177 19.0803 11.199 19.0044 12.001 18.6958C12.8031 18.3873 13.4895 17.8601 13.9728 17.1816C14.4561 16.503 14.7142 15.7039 14.7143 14.8863V10.346C15.6727 10.9929 16.8218 11.3397 18 11.3378V9.11309C17.768 9.11336 17.5366 9.09071 17.3095 9.0455Z" fill="white"/>
</svg>
